<svg xmlns="http://www.w3.org/2000/svg" xmlns:xlink="http://www.w3.org/1999/xlink" width="600" height="400" viewBox="0 0 2400 1600">
<defs>
  <clipPath id="clip180">
    <rect x="0" y="0" width="2400" height="1600"></rect>
  </clipPath>
</defs>
<path clip-path="url(#clip180)" d="
M0 1600 L2400 1600 L2400 0 L0 0  Z
  " fill="#ffffff" fill-rule="evenodd" fill-opacity="1"></path>
<defs>
  <clipPath id="clip181">
    <rect x="480" y="0" width="1681" height="1600"></rect>
  </clipPath>
</defs>
<path clip-path="url(#clip180)" d="
M203.964 1423.18 L2352.76 1423.18 L2352.76 47.2441 L203.964 47.2441  Z
  " fill="#ffffff" fill-rule="evenodd" fill-opacity="1"></path>
<defs>
  <clipPath id="clip182">
    <rect x="203" y="47" width="2150" height="1377"></rect>
  </clipPath>
</defs>
<polyline clip-path="url(#clip182)" style="stroke:#000000; stroke-linecap:round; stroke-linejoin:round; stroke-width:2; stroke-opacity:0.1; fill:none" points="
  602.639,1423.18 602.639,47.2441 
  "></polyline>
<polyline clip-path="url(#clip182)" style="stroke:#000000; stroke-linecap:round; stroke-linejoin:round; stroke-width:2; stroke-opacity:0.1; fill:none" points="
  1165.74,1423.18 1165.74,47.2441 
  "></polyline>
<polyline clip-path="url(#clip182)" style="stroke:#000000; stroke-linecap:round; stroke-linejoin:round; stroke-width:2; stroke-opacity:0.1; fill:none" points="
  1728.84,1423.18 1728.84,47.2441 
  "></polyline>
<polyline clip-path="url(#clip182)" style="stroke:#000000; stroke-linecap:round; stroke-linejoin:round; stroke-width:2; stroke-opacity:0.1; fill:none" points="
  2291.94,1423.18 2291.94,47.2441 
  "></polyline>
<polyline clip-path="url(#clip180)" style="stroke:#000000; stroke-linecap:round; stroke-linejoin:round; stroke-width:4; stroke-opacity:1; fill:none" points="
  203.964,1423.18 2352.76,1423.18 
  "></polyline>
<polyline clip-path="url(#clip180)" style="stroke:#000000; stroke-linecap:round; stroke-linejoin:round; stroke-width:4; stroke-opacity:1; fill:none" points="
  602.639,1423.18 602.639,1404.28 
  "></polyline>
<polyline clip-path="url(#clip180)" style="stroke:#000000; stroke-linecap:round; stroke-linejoin:round; stroke-width:4; stroke-opacity:1; fill:none" points="
  1165.74,1423.18 1165.74,1404.28 
  "></polyline>
<polyline clip-path="url(#clip180)" style="stroke:#000000; stroke-linecap:round; stroke-linejoin:round; stroke-width:4; stroke-opacity:1; fill:none" points="
  1728.84,1423.18 1728.84,1404.28 
  "></polyline>
<polyline clip-path="url(#clip180)" style="stroke:#000000; stroke-linecap:round; stroke-linejoin:round; stroke-width:4; stroke-opacity:1; fill:none" points="
  2291.94,1423.18 2291.94,1404.28 
  "></polyline>
<path clip-path="url(#clip180)" d="M532.095 1451.02 L550.452 1451.02 L550.452 1454.96 L536.378 1454.96 L536.378 1463.43 Q537.396 1463.08 538.415 1462.92 Q539.433 1462.73 540.452 1462.73 Q546.239 1462.73 549.618 1465.9 Q552.998 1469.08 552.998 1474.49 Q552.998 1480.07 549.526 1483.17 Q546.054 1486.25 539.734 1486.25 Q537.558 1486.25 535.29 1485.88 Q533.044 1485.51 530.637 1484.77 L530.637 1480.07 Q532.72 1481.2 534.942 1481.76 Q537.165 1482.32 539.642 1482.32 Q543.646 1482.32 545.984 1480.21 Q548.322 1478.1 548.322 1474.49 Q548.322 1470.88 545.984 1468.77 Q543.646 1466.67 539.642 1466.67 Q537.767 1466.67 535.892 1467.08 Q534.04 1467.5 532.095 1468.38 L532.095 1451.02 Z" fill="#000000" fill-rule="evenodd" fill-opacity="1"></path><path clip-path="url(#clip180)" d="M562.35 1484.86 L562.35 1480.6 Q564.109 1481.44 565.915 1481.88 Q567.72 1482.32 569.456 1482.32 Q574.086 1482.32 576.516 1479.21 Q578.97 1476.09 579.317 1469.75 Q577.975 1471.74 575.914 1472.8 Q573.854 1473.87 571.354 1473.87 Q566.169 1473.87 563.137 1470.74 Q560.128 1467.59 560.128 1462.15 Q560.128 1456.83 563.276 1453.61 Q566.424 1450.39 571.655 1450.39 Q577.651 1450.39 580.799 1455 Q583.97 1459.58 583.97 1468.33 Q583.97 1476.51 580.081 1481.39 Q576.215 1486.25 569.665 1486.25 Q567.905 1486.25 566.1 1485.9 Q564.294 1485.56 562.35 1484.86 M571.655 1470.21 Q574.803 1470.21 576.632 1468.06 Q578.484 1465.9 578.484 1462.15 Q578.484 1458.43 576.632 1456.27 Q574.803 1454.1 571.655 1454.1 Q568.507 1454.1 566.655 1456.27 Q564.827 1458.43 564.827 1462.15 Q564.827 1465.9 566.655 1468.06 Q568.507 1470.21 571.655 1470.21 Z" fill="#000000" fill-rule="evenodd" fill-opacity="1"></path><path clip-path="url(#clip180)" d="M592.419 1451.02 L610.775 1451.02 L610.775 1454.96 L596.701 1454.96 L596.701 1463.43 Q597.72 1463.08 598.738 1462.92 Q599.757 1462.73 600.775 1462.73 Q606.562 1462.73 609.942 1465.9 Q613.322 1469.08 613.322 1474.49 Q613.322 1480.07 609.849 1483.17 Q606.377 1486.25 600.058 1486.25 Q597.882 1486.25 595.613 1485.88 Q593.368 1485.51 590.961 1484.77 L590.961 1480.07 Q593.044 1481.2 595.266 1481.76 Q597.488 1482.32 599.965 1482.32 Q603.97 1482.32 606.308 1480.21 Q608.646 1478.1 608.646 1474.49 Q608.646 1470.88 606.308 1468.77 Q603.97 1466.67 599.965 1466.67 Q598.09 1466.67 596.215 1467.08 Q594.363 1467.5 592.419 1468.38 L592.419 1451.02 Z" fill="#000000" fill-rule="evenodd" fill-opacity="1"></path><path clip-path="url(#clip180)" d="M632.535 1454.1 Q628.923 1454.1 627.095 1457.66 Q625.289 1461.2 625.289 1468.33 Q625.289 1475.44 627.095 1479.01 Q628.923 1482.55 632.535 1482.55 Q636.169 1482.55 637.974 1479.01 Q639.803 1475.44 639.803 1468.33 Q639.803 1461.2 637.974 1457.66 Q636.169 1454.1 632.535 1454.1 M632.535 1450.39 Q638.345 1450.39 641.4 1455 Q644.479 1459.58 644.479 1468.33 Q644.479 1477.06 641.4 1481.67 Q638.345 1486.25 632.535 1486.25 Q626.724 1486.25 623.646 1481.67 Q620.59 1477.06 620.59 1468.33 Q620.59 1459.58 623.646 1455 Q626.724 1450.39 632.535 1450.39 Z" fill="#000000" fill-rule="evenodd" fill-opacity="1"></path><path clip-path="url(#clip180)" d="M662.696 1454.1 Q659.085 1454.1 657.257 1457.66 Q655.451 1461.2 655.451 1468.33 Q655.451 1475.44 657.257 1479.01 Q659.085 1482.55 662.696 1482.55 Q666.331 1482.55 668.136 1479.01 Q669.965 1475.44 669.965 1468.33 Q669.965 1461.2 668.136 1457.66 Q666.331 1454.1 662.696 1454.1 M662.696 1450.39 Q668.507 1450.39 671.562 1455 Q674.641 1459.58 674.641 1468.33 Q674.641 1477.06 671.562 1481.67 Q668.507 1486.25 662.696 1486.25 Q656.886 1486.25 653.808 1481.67 Q650.752 1477.06 650.752 1468.33 Q650.752 1459.58 653.808 1455 Q656.886 1450.39 662.696 1450.39 Z" fill="#000000" fill-rule="evenodd" fill-opacity="1"></path><path clip-path="url(#clip180)" d="M1105.9 1466.44 Q1102.75 1466.44 1100.9 1468.59 Q1099.07 1470.74 1099.07 1474.49 Q1099.07 1478.22 1100.9 1480.39 Q1102.75 1482.55 1105.9 1482.55 Q1109.05 1482.55 1110.88 1480.39 Q1112.73 1478.22 1112.73 1474.49 Q1112.73 1470.74 1110.88 1468.59 Q1109.05 1466.44 1105.9 1466.44 M1115.18 1451.78 L1115.18 1456.04 Q1113.43 1455.21 1111.62 1454.77 Q1109.84 1454.33 1108.08 1454.33 Q1103.45 1454.33 1100.99 1457.45 Q1098.56 1460.58 1098.22 1466.9 Q1099.58 1464.89 1101.64 1463.82 Q1103.7 1462.73 1106.18 1462.73 Q1111.39 1462.73 1114.4 1465.9 Q1117.43 1469.05 1117.43 1474.49 Q1117.43 1479.82 1114.28 1483.03 Q1111.13 1486.25 1105.9 1486.25 Q1099.91 1486.25 1096.74 1481.67 Q1093.56 1477.06 1093.56 1468.33 Q1093.56 1460.14 1097.45 1455.28 Q1101.34 1450.39 1107.89 1450.39 Q1109.65 1450.39 1111.43 1450.74 Q1113.24 1451.09 1115.18 1451.78 Z" fill="#000000" fill-rule="evenodd" fill-opacity="1"></path><path clip-path="url(#clip180)" d="M1135.49 1454.1 Q1131.87 1454.1 1130.05 1457.66 Q1128.24 1461.2 1128.24 1468.33 Q1128.24 1475.44 1130.05 1479.01 Q1131.87 1482.55 1135.49 1482.55 Q1139.12 1482.55 1140.92 1479.01 Q1142.75 1475.44 1142.75 1468.33 Q1142.75 1461.2 1140.92 1457.66 Q1139.12 1454.1 1135.49 1454.1 M1135.49 1450.39 Q1141.3 1450.39 1144.35 1455 Q1147.43 1459.58 1147.43 1468.33 Q1147.43 1477.06 1144.35 1481.67 Q1141.3 1486.25 1135.49 1486.25 Q1129.67 1486.25 1126.6 1481.67 Q1123.54 1477.06 1123.54 1468.33 Q1123.54 1459.58 1126.6 1455 Q1129.67 1450.39 1135.49 1450.39 Z" fill="#000000" fill-rule="evenodd" fill-opacity="1"></path><path clip-path="url(#clip180)" d="M1165.65 1454.1 Q1162.04 1454.1 1160.21 1457.66 Q1158.4 1461.2 1158.4 1468.33 Q1158.4 1475.44 1160.21 1479.01 Q1162.04 1482.55 1165.65 1482.55 Q1169.28 1482.55 1171.09 1479.01 Q1172.92 1475.44 1172.92 1468.33 Q1172.92 1461.2 1171.09 1457.66 Q1169.28 1454.1 1165.65 1454.1 M1165.65 1450.39 Q1171.46 1450.39 1174.51 1455 Q1177.59 1459.58 1177.59 1468.33 Q1177.59 1477.06 1174.51 1481.67 Q1171.46 1486.25 1165.65 1486.25 Q1159.84 1486.25 1156.76 1481.67 Q1153.7 1477.06 1153.7 1468.33 Q1153.7 1459.58 1156.76 1455 Q1159.84 1450.39 1165.65 1450.39 Z" fill="#000000" fill-rule="evenodd" fill-opacity="1"></path><path clip-path="url(#clip180)" d="M1195.81 1454.1 Q1192.2 1454.1 1190.37 1457.66 Q1188.56 1461.2 1188.56 1468.33 Q1188.56 1475.44 1190.37 1479.01 Q1192.2 1482.55 1195.81 1482.55 Q1199.44 1482.55 1201.25 1479.01 Q1203.08 1475.44 1203.08 1468.33 Q1203.08 1461.2 1201.25 1457.66 Q1199.44 1454.1 1195.81 1454.1 M1195.81 1450.39 Q1201.62 1450.39 1204.67 1455 Q1207.75 1459.58 1207.75 1468.33 Q1207.75 1477.06 1204.67 1481.67 Q1201.62 1486.25 1195.81 1486.25 Q1190 1486.25 1186.92 1481.67 Q1183.86 1477.06 1183.86 1468.33 Q1183.86 1459.58 1186.92 1455 Q1190 1450.39 1195.81 1450.39 Z" fill="#000000" fill-rule="evenodd" fill-opacity="1"></path><path clip-path="url(#clip180)" d="M1225.97 1454.1 Q1222.36 1454.1 1220.53 1457.66 Q1218.73 1461.2 1218.73 1468.33 Q1218.73 1475.44 1220.53 1479.01 Q1222.36 1482.55 1225.97 1482.55 Q1229.6 1482.55 1231.41 1479.01 Q1233.24 1475.44 1233.24 1468.33 Q1233.24 1461.2 1231.41 1457.66 Q1229.6 1454.1 1225.97 1454.1 M1225.97 1450.39 Q1231.78 1450.39 1234.84 1455 Q1237.92 1459.58 1237.92 1468.33 Q1237.92 1477.06 1234.84 1481.67 Q1231.78 1486.25 1225.97 1486.25 Q1220.16 1486.25 1217.08 1481.67 Q1214.03 1477.06 1214.03 1468.33 Q1214.03 1459.58 1217.08 1455 Q1220.16 1450.39 1225.97 1450.39 Z" fill="#000000" fill-rule="evenodd" fill-opacity="1"></path><path clip-path="url(#clip180)" d="M1669 1466.44 Q1665.85 1466.44 1664 1468.59 Q1662.17 1470.74 1662.17 1474.49 Q1662.17 1478.22 1664 1480.39 Q1665.85 1482.55 1669 1482.55 Q1672.15 1482.55 1673.98 1480.39 Q1675.83 1478.22 1675.83 1474.49 Q1675.83 1470.74 1673.98 1468.59 Q1672.15 1466.44 1669 1466.44 M1678.29 1451.78 L1678.29 1456.04 Q1676.53 1455.21 1674.72 1454.77 Q1672.94 1454.33 1671.18 1454.33 Q1666.55 1454.33 1664.1 1457.45 Q1661.66 1460.58 1661.32 1466.9 Q1662.68 1464.89 1664.74 1463.82 Q1666.8 1462.73 1669.28 1462.73 Q1674.49 1462.73 1677.5 1465.9 Q1680.53 1469.05 1680.53 1474.49 Q1680.53 1479.82 1677.38 1483.03 Q1674.23 1486.25 1669 1486.25 Q1663.01 1486.25 1659.84 1481.67 Q1656.66 1477.06 1656.66 1468.33 Q1656.66 1460.14 1660.55 1455.28 Q1664.44 1450.39 1670.99 1450.39 Q1672.75 1450.39 1674.54 1450.74 Q1676.34 1451.09 1678.29 1451.78 Z" fill="#000000" fill-rule="evenodd" fill-opacity="1"></path><path clip-path="url(#clip180)" d="M1698.59 1454.1 Q1694.97 1454.1 1693.15 1457.66 Q1691.34 1461.2 1691.34 1468.33 Q1691.34 1475.44 1693.15 1479.01 Q1694.97 1482.55 1698.59 1482.55 Q1702.22 1482.55 1704.03 1479.01 Q1705.85 1475.44 1705.85 1468.33 Q1705.85 1461.2 1704.03 1457.66 Q1702.22 1454.1 1698.59 1454.1 M1698.59 1450.39 Q1704.4 1450.39 1707.45 1455 Q1710.53 1459.58 1710.53 1468.33 Q1710.53 1477.06 1707.45 1481.67 Q1704.4 1486.25 1698.59 1486.25 Q1692.78 1486.25 1689.7 1481.67 Q1686.64 1477.06 1686.64 1468.33 Q1686.64 1459.58 1689.7 1455 Q1692.78 1450.39 1698.59 1450.39 Z" fill="#000000" fill-rule="evenodd" fill-opacity="1"></path><path clip-path="url(#clip180)" d="M1718.79 1451.02 L1737.15 1451.02 L1737.15 1454.96 L1723.08 1454.96 L1723.08 1463.43 Q1724.09 1463.08 1725.11 1462.92 Q1726.13 1462.73 1727.15 1462.73 Q1732.94 1462.73 1736.32 1465.9 Q1739.7 1469.08 1739.7 1474.49 Q1739.7 1480.07 1736.22 1483.17 Q1732.75 1486.25 1726.43 1486.25 Q1724.26 1486.25 1721.99 1485.88 Q1719.74 1485.51 1717.34 1484.77 L1717.34 1480.07 Q1719.42 1481.2 1721.64 1481.76 Q1723.86 1482.32 1726.34 1482.32 Q1730.34 1482.32 1732.68 1480.21 Q1735.02 1478.1 1735.02 1474.49 Q1735.02 1470.88 1732.68 1468.77 Q1730.34 1466.67 1726.34 1466.67 Q1724.47 1466.67 1722.59 1467.08 Q1720.74 1467.5 1718.79 1468.38 L1718.79 1451.02 Z" fill="#000000" fill-rule="evenodd" fill-opacity="1"></path><path clip-path="url(#clip180)" d="M1758.91 1454.1 Q1755.3 1454.1 1753.47 1457.66 Q1751.66 1461.2 1751.66 1468.33 Q1751.66 1475.44 1753.47 1479.01 Q1755.3 1482.55 1758.91 1482.55 Q1762.54 1482.55 1764.35 1479.01 Q1766.18 1475.44 1766.18 1468.33 Q1766.18 1461.2 1764.35 1457.66 Q1762.54 1454.1 1758.91 1454.1 M1758.91 1450.39 Q1764.72 1450.39 1767.78 1455 Q1770.85 1459.58 1770.85 1468.33 Q1770.85 1477.06 1767.78 1481.67 Q1764.72 1486.25 1758.91 1486.25 Q1753.1 1486.25 1750.02 1481.67 Q1746.97 1477.06 1746.97 1468.33 Q1746.97 1459.58 1750.02 1455 Q1753.1 1450.39 1758.91 1450.39 Z" fill="#000000" fill-rule="evenodd" fill-opacity="1"></path><path clip-path="url(#clip180)" d="M1789.07 1454.1 Q1785.46 1454.1 1783.63 1457.66 Q1781.83 1461.2 1781.83 1468.33 Q1781.83 1475.44 1783.63 1479.01 Q1785.46 1482.55 1789.07 1482.55 Q1792.71 1482.55 1794.51 1479.01 Q1796.34 1475.44 1796.34 1468.33 Q1796.34 1461.2 1794.51 1457.66 Q1792.71 1454.1 1789.07 1454.1 M1789.07 1450.39 Q1794.88 1450.39 1797.94 1455 Q1801.02 1459.58 1801.02 1468.33 Q1801.02 1477.06 1797.94 1481.67 Q1794.88 1486.25 1789.07 1486.25 Q1783.26 1486.25 1780.18 1481.67 Q1777.13 1477.06 1777.13 1468.33 Q1777.13 1459.58 1780.18 1455 Q1783.26 1450.39 1789.07 1450.39 Z" fill="#000000" fill-rule="evenodd" fill-opacity="1"></path><path clip-path="url(#clip180)" d="M2232.1 1466.44 Q2228.96 1466.44 2227.1 1468.59 Q2225.27 1470.74 2225.27 1474.49 Q2225.27 1478.22 2227.1 1480.39 Q2228.96 1482.55 2232.1 1482.55 Q2235.25 1482.55 2237.08 1480.39 Q2238.93 1478.22 2238.93 1474.49 Q2238.93 1470.74 2237.08 1468.59 Q2235.25 1466.44 2232.1 1466.44 M2241.39 1451.78 L2241.39 1456.04 Q2239.63 1455.21 2237.82 1454.77 Q2236.04 1454.33 2234.28 1454.33 Q2229.65 1454.33 2227.2 1457.45 Q2224.77 1460.58 2224.42 1466.9 Q2225.78 1464.89 2227.84 1463.82 Q2229.9 1462.73 2232.38 1462.73 Q2237.59 1462.73 2240.6 1465.9 Q2243.63 1469.05 2243.63 1474.49 Q2243.63 1479.82 2240.48 1483.03 Q2237.33 1486.25 2232.1 1486.25 Q2226.11 1486.25 2222.94 1481.67 Q2219.77 1477.06 2219.77 1468.33 Q2219.77 1460.14 2223.65 1455.28 Q2227.54 1450.39 2234.09 1450.39 Q2235.85 1450.39 2237.64 1450.74 Q2239.44 1451.09 2241.39 1451.78 Z" fill="#000000" fill-rule="evenodd" fill-opacity="1"></path><path clip-path="url(#clip180)" d="M2252.5 1481.64 L2260.14 1481.64 L2260.14 1455.28 L2251.83 1456.95 L2251.83 1452.69 L2260.09 1451.02 L2264.77 1451.02 L2264.77 1481.64 L2272.4 1481.64 L2272.4 1485.58 L2252.5 1485.58 L2252.5 1481.64 Z" fill="#000000" fill-rule="evenodd" fill-opacity="1"></path><path clip-path="url(#clip180)" d="M2291.85 1454.1 Q2288.24 1454.1 2286.41 1457.66 Q2284.6 1461.2 2284.6 1468.33 Q2284.6 1475.44 2286.41 1479.01 Q2288.24 1482.55 2291.85 1482.55 Q2295.48 1482.55 2297.29 1479.01 Q2299.12 1475.44 2299.12 1468.33 Q2299.12 1461.2 2297.29 1457.66 Q2295.48 1454.1 2291.85 1454.1 M2291.85 1450.39 Q2297.66 1450.39 2300.71 1455 Q2303.79 1459.58 2303.79 1468.33 Q2303.79 1477.06 2300.71 1481.67 Q2297.66 1486.25 2291.85 1486.25 Q2286.04 1486.25 2282.96 1481.67 Q2279.9 1477.06 2279.9 1468.33 Q2279.9 1459.58 2282.96 1455 Q2286.04 1450.39 2291.85 1450.39 Z" fill="#000000" fill-rule="evenodd" fill-opacity="1"></path><path clip-path="url(#clip180)" d="M2322.01 1454.1 Q2318.4 1454.1 2316.57 1457.66 Q2314.76 1461.2 2314.76 1468.33 Q2314.76 1475.44 2316.57 1479.01 Q2318.4 1482.55 2322.01 1482.55 Q2325.64 1482.55 2327.45 1479.01 Q2329.28 1475.44 2329.28 1468.33 Q2329.28 1461.2 2327.45 1457.66 Q2325.64 1454.1 2322.01 1454.1 M2322.01 1450.39 Q2327.82 1450.39 2330.88 1455 Q2333.95 1459.58 2333.95 1468.33 Q2333.95 1477.06 2330.88 1481.67 Q2327.82 1486.25 2322.01 1486.25 Q2316.2 1486.25 2313.12 1481.67 Q2310.07 1477.06 2310.07 1468.33 Q2310.07 1459.58 2313.12 1455 Q2316.2 1450.39 2322.01 1450.39 Z" fill="#000000" fill-rule="evenodd" fill-opacity="1"></path><path clip-path="url(#clip180)" d="M2352.17 1454.1 Q2348.56 1454.1 2346.73 1457.66 Q2344.93 1461.2 2344.93 1468.33 Q2344.93 1475.44 2346.73 1479.01 Q2348.56 1482.55 2352.17 1482.55 Q2355.81 1482.55 2357.61 1479.01 Q2359.44 1475.44 2359.44 1468.33 Q2359.44 1461.2 2357.61 1457.66 Q2355.81 1454.1 2352.17 1454.1 M2352.17 1450.39 Q2357.98 1450.39 2361.04 1455 Q2364.12 1459.58 2364.12 1468.33 Q2364.12 1477.06 2361.04 1481.67 Q2357.98 1486.25 2352.17 1486.25 Q2346.36 1486.25 2343.28 1481.67 Q2340.23 1477.06 2340.23 1468.33 Q2340.23 1459.58 2343.28 1455 Q2346.36 1450.39 2352.17 1450.39 Z" fill="#000000" fill-rule="evenodd" fill-opacity="1"></path><path clip-path="url(#clip180)" d="M529.673 1520.52 L538.33 1520.52 L559.401 1560.28 L559.401 1520.52 L565.639 1520.52 L565.639 1568.04 L556.982 1568.04 L535.911 1528.29 L535.911 1568.04 L529.673 1568.04 L529.673 1520.52 Z" fill="#000000" fill-rule="evenodd" fill-opacity="1"></path><path clip-path="url(#clip180)" d="M591.993 1536.5 Q587.283 1536.5 584.545 1540.19 Q581.808 1543.85 581.808 1550.25 Q581.808 1556.65 584.514 1560.34 Q587.251 1564 591.993 1564 Q596.672 1564 599.409 1560.31 Q602.147 1556.62 602.147 1550.25 Q602.147 1543.92 599.409 1540.23 Q596.672 1536.5 591.993 1536.5 M591.993 1531.54 Q599.632 1531.54 603.993 1536.5 Q608.353 1541.47 608.353 1550.25 Q608.353 1559 603.993 1564 Q599.632 1568.97 591.993 1568.97 Q584.323 1568.97 579.962 1564 Q575.633 1559 575.633 1550.25 Q575.633 1541.47 579.962 1536.5 Q584.323 1531.54 591.993 1531.54 Z" fill="#000000" fill-rule="evenodd" fill-opacity="1"></path><path clip-path="url(#clip180)" d="M652.595 1536.5 Q647.884 1536.5 645.147 1540.19 Q642.41 1543.85 642.41 1550.25 Q642.41 1556.65 645.115 1560.34 Q647.852 1564 652.595 1564 Q657.274 1564 660.011 1560.31 Q662.748 1556.62 662.748 1550.25 Q662.748 1543.92 660.011 1540.23 Q657.274 1536.5 652.595 1536.5 M652.595 1531.54 Q660.234 1531.54 664.594 1536.5 Q668.955 1541.47 668.955 1550.25 Q668.955 1559 664.594 1564 Q660.234 1568.97 652.595 1568.97 Q644.924 1568.97 640.564 1564 Q636.235 1559 636.235 1550.25 Q636.235 1541.47 640.564 1536.5 Q644.924 1531.54 652.595 1531.54 Z" fill="#000000" fill-rule="evenodd" fill-opacity="1"></path><path clip-path="url(#clip180)" d="M696.709 1518.52 L696.709 1523.39 L691.107 1523.39 Q687.956 1523.39 686.715 1524.66 Q685.506 1525.93 685.506 1529.24 L685.506 1532.4 L695.15 1532.4 L695.15 1536.95 L685.506 1536.95 L685.506 1568.04 L679.617 1568.04 L679.617 1536.95 L674.015 1536.95 L674.015 1532.4 L679.617 1532.4 L679.617 1529.91 Q679.617 1523.96 682.386 1521.26 Q685.155 1518.52 691.171 1518.52 L696.709 1518.52 Z" fill="#000000" fill-rule="evenodd" fill-opacity="1"></path><path clip-path="url(#clip180)" d="M752.823 1548.76 L752.823 1551.62 L725.896 1551.62 Q726.278 1557.67 729.524 1560.85 Q732.803 1564 738.627 1564 Q742.001 1564 745.152 1563.17 Q748.335 1562.35 751.454 1560.69 L751.454 1566.23 Q748.303 1567.57 744.993 1568.27 Q741.683 1568.97 738.277 1568.97 Q729.747 1568.97 724.75 1564 Q719.785 1559.04 719.785 1550.57 Q719.785 1541.82 724.496 1536.69 Q729.238 1531.54 737.259 1531.54 Q744.452 1531.54 748.622 1536.18 Q752.823 1540.8 752.823 1548.76 M746.966 1547.04 Q746.903 1542.23 744.261 1539.37 Q741.651 1536.5 737.322 1536.5 Q732.421 1536.5 729.461 1539.27 Q726.533 1542.04 726.087 1547.07 L746.966 1547.04 Z" fill="#000000" fill-rule="evenodd" fill-opacity="1"></path><path clip-path="url(#clip180)" d="M758.234 1532.4 L764.44 1532.4 L775.58 1562.31 L786.72 1532.4 L792.927 1532.4 L779.559 1568.04 L771.602 1568.04 L758.234 1532.4 Z" fill="#000000" fill-rule="evenodd" fill-opacity="1"></path><path clip-path="url(#clip180)" d="M831.503 1548.76 L831.503 1551.62 L804.576 1551.62 Q804.958 1557.67 808.205 1560.85 Q811.483 1564 817.308 1564 Q820.681 1564 823.832 1563.17 Q827.015 1562.35 830.134 1560.69 L830.134 1566.23 Q826.983 1567.57 823.673 1568.27 Q820.363 1568.97 816.957 1568.97 Q808.427 1568.97 803.43 1564 Q798.465 1559.04 798.465 1550.57 Q798.465 1541.82 803.176 1536.69 Q807.918 1531.54 815.939 1531.54 Q823.132 1531.54 827.302 1536.18 Q831.503 1540.8 831.503 1548.76 M825.647 1547.04 Q825.583 1542.23 822.941 1539.37 Q820.331 1536.5 816.003 1536.5 Q811.101 1536.5 808.141 1539.27 Q805.213 1542.04 804.767 1547.07 L825.647 1547.04 Z" fill="#000000" fill-rule="evenodd" fill-opacity="1"></path><path clip-path="url(#clip180)" d="M870.748 1546.53 L870.748 1568.04 L864.891 1568.04 L864.891 1546.72 Q864.891 1541.66 862.918 1539.14 Q860.944 1536.63 856.998 1536.63 Q852.255 1536.63 849.518 1539.65 Q846.781 1542.68 846.781 1547.9 L846.781 1568.04 L840.892 1568.04 L840.892 1532.4 L846.781 1532.4 L846.781 1537.93 Q848.881 1534.72 851.714 1533.13 Q854.579 1531.54 858.303 1531.54 Q864.446 1531.54 867.597 1535.36 Q870.748 1539.14 870.748 1546.53 Z" fill="#000000" fill-rule="evenodd" fill-opacity="1"></path><path clip-path="url(#clip180)" d="M888.221 1522.27 L888.221 1532.4 L900.285 1532.4 L900.285 1536.95 L888.221 1536.95 L888.221 1556.3 Q888.221 1560.66 889.399 1561.9 Q890.609 1563.14 894.269 1563.14 L900.285 1563.14 L900.285 1568.04 L894.269 1568.04 Q887.489 1568.04 884.911 1565.53 Q882.333 1562.98 882.333 1556.3 L882.333 1536.95 L878.036 1536.95 L878.036 1532.4 L882.333 1532.4 L882.333 1522.27 L888.221 1522.27 Z" fill="#000000" fill-rule="evenodd" fill-opacity="1"></path><path clip-path="url(#clip180)" d="M930.713 1533.45 L930.713 1538.98 Q928.23 1537.71 925.556 1537.07 Q922.883 1536.44 920.018 1536.44 Q915.658 1536.44 913.462 1537.77 Q911.297 1539.11 911.297 1541.79 Q911.297 1543.82 912.857 1545 Q914.416 1546.15 919.127 1547.2 L921.132 1547.64 Q927.371 1548.98 929.981 1551.43 Q932.622 1553.85 932.622 1558.21 Q932.622 1563.17 928.676 1566.07 Q924.761 1568.97 917.886 1568.97 Q915.021 1568.97 911.902 1568.39 Q908.815 1567.85 905.377 1566.74 L905.377 1560.69 Q908.624 1562.38 911.775 1563.24 Q914.926 1564.07 918.013 1564.07 Q922.151 1564.07 924.379 1562.66 Q926.607 1561.23 926.607 1558.65 Q926.607 1556.27 924.983 1554.99 Q923.392 1553.72 917.949 1552.54 L915.912 1552.07 Q910.47 1550.92 908.051 1548.56 Q905.632 1546.18 905.632 1542.04 Q905.632 1537.01 909.196 1534.27 Q912.761 1531.54 919.318 1531.54 Q922.564 1531.54 925.429 1532.01 Q928.294 1532.49 930.713 1533.45 Z" fill="#000000" fill-rule="evenodd" fill-opacity="1"></path><path clip-path="url(#clip180)" d="M956.016 1518.58 Q951.751 1525.9 949.682 1533.06 Q947.614 1540.23 947.614 1547.58 Q947.614 1554.93 949.682 1562.16 Q951.783 1569.35 956.016 1576.64 L950.924 1576.64 Q946.149 1569.16 943.762 1561.93 Q941.407 1554.71 941.407 1547.58 Q941.407 1540.48 943.762 1533.29 Q946.118 1526.09 950.924 1518.58 L956.016 1518.58 Z" fill="#000000" fill-rule="evenodd" fill-opacity="1"></path><path clip-path="url(#clip180)" d="M997.011 1546.53 L997.011 1568.04 L991.155 1568.04 L991.155 1546.72 Q991.155 1541.66 989.182 1539.14 Q987.208 1536.63 983.261 1536.63 Q978.519 1536.63 975.782 1539.65 Q973.045 1542.68 973.045 1547.9 L973.045 1568.04 L967.156 1568.04 L967.156 1518.52 L973.045 1518.52 L973.045 1537.93 Q975.145 1534.72 977.978 1533.13 Q980.843 1531.54 984.566 1531.54 Q990.709 1531.54 993.86 1535.36 Q997.011 1539.14 997.011 1546.53 Z" fill="#000000" fill-rule="evenodd" fill-opacity="1"></path><path clip-path="url(#clip180)" d="M1008.69 1532.4 L1014.55 1532.4 L1014.55 1568.04 L1008.69 1568.04 L1008.69 1532.4 M1008.69 1518.52 L1014.55 1518.52 L1014.55 1525.93 L1008.69 1525.93 L1008.69 1518.52 Z" fill="#000000" fill-rule="evenodd" fill-opacity="1"></path><path clip-path="url(#clip180)" d="M1032.6 1522.27 L1032.6 1532.4 L1044.66 1532.4 L1044.66 1536.95 L1032.6 1536.95 L1032.6 1556.3 Q1032.6 1560.66 1033.77 1561.9 Q1034.98 1563.14 1038.64 1563.14 L1044.66 1563.14 L1044.66 1568.04 L1038.64 1568.04 Q1031.86 1568.04 1029.29 1565.53 Q1026.71 1562.98 1026.71 1556.3 L1026.71 1536.95 L1022.41 1536.95 L1022.41 1532.4 L1026.71 1532.4 L1026.71 1522.27 L1032.6 1522.27 Z" fill="#000000" fill-rule="evenodd" fill-opacity="1"></path><path clip-path="url(#clip180)" d="M1053.19 1559.96 L1059.9 1559.96 L1059.9 1568.04 L1053.19 1568.04 L1053.19 1559.96 Z" fill="#000000" fill-rule="evenodd" fill-opacity="1"></path><path clip-path="url(#clip180)" d="M1096.54 1537.81 L1096.54 1518.52 L1102.4 1518.52 L1102.4 1568.04 L1096.54 1568.04 L1096.54 1562.7 Q1094.69 1565.88 1091.86 1567.44 Q1089.06 1568.97 1085.11 1568.97 Q1078.65 1568.97 1074.58 1563.81 Q1070.54 1558.65 1070.54 1550.25 Q1070.54 1541.85 1074.58 1536.69 Q1078.65 1531.54 1085.11 1531.54 Q1089.06 1531.54 1091.86 1533.1 Q1094.69 1534.62 1096.54 1537.81 M1076.58 1550.25 Q1076.58 1556.71 1079.22 1560.4 Q1081.9 1564.07 1086.55 1564.07 Q1091.19 1564.07 1093.87 1560.4 Q1096.54 1556.71 1096.54 1550.25 Q1096.54 1543.79 1093.87 1540.13 Q1091.19 1536.44 1086.55 1536.44 Q1081.9 1536.44 1079.22 1540.13 Q1076.58 1543.79 1076.58 1550.25 Z" fill="#000000" fill-rule="evenodd" fill-opacity="1"></path><path clip-path="url(#clip180)" d="M1144.95 1548.76 L1144.95 1551.62 L1118.02 1551.62 Q1118.41 1557.67 1121.65 1560.85 Q1124.93 1564 1130.75 1564 Q1134.13 1564 1137.28 1563.17 Q1140.46 1562.35 1143.58 1560.69 L1143.58 1566.23 Q1140.43 1567.57 1137.12 1568.27 Q1133.81 1568.97 1130.4 1568.97 Q1121.87 1568.97 1116.88 1564 Q1111.91 1559.04 1111.91 1550.57 Q1111.91 1541.82 1116.62 1536.69 Q1121.37 1531.54 1129.39 1531.54 Q1136.58 1531.54 1140.75 1536.18 Q1144.95 1540.8 1144.95 1548.76 M1139.09 1547.04 Q1139.03 1542.23 1136.39 1539.37 Q1133.78 1536.5 1129.45 1536.5 Q1124.55 1536.5 1121.59 1539.27 Q1118.66 1542.04 1118.21 1547.07 L1139.09 1547.04 Z" fill="#000000" fill-rule="evenodd" fill-opacity="1"></path><path clip-path="url(#clip180)" d="M1160.36 1522.27 L1160.36 1532.4 L1172.42 1532.4 L1172.42 1536.95 L1160.36 1536.95 L1160.36 1556.3 Q1160.36 1560.66 1161.53 1561.9 Q1162.74 1563.14 1166.4 1563.14 L1172.42 1563.14 L1172.42 1568.04 L1166.4 1568.04 Q1159.62 1568.04 1157.05 1565.53 Q1154.47 1562.98 1154.47 1556.3 L1154.47 1536.95 L1150.17 1536.95 L1150.17 1532.4 L1154.47 1532.4 L1154.47 1522.27 L1160.36 1522.27 Z" fill="#000000" fill-rule="evenodd" fill-opacity="1"></path><path clip-path="url(#clip180)" d="M1180.88 1538.44 L1221.69 1538.44 L1221.69 1543.79 L1180.88 1543.79 L1180.88 1538.44 M1180.88 1551.43 L1221.69 1551.43 L1221.69 1556.84 L1180.88 1556.84 L1180.88 1551.43 Z" fill="#000000" fill-rule="evenodd" fill-opacity="1"></path><path clip-path="url(#clip180)" d="M1235.5 1538.44 L1276.31 1538.44 L1276.31 1543.79 L1235.5 1543.79 L1235.5 1538.44 M1235.5 1551.43 L1276.31 1551.43 L1276.31 1556.84 L1235.5 1556.84 L1235.5 1551.43 Z" fill="#000000" fill-rule="evenodd" fill-opacity="1"></path><path clip-path="url(#clip180)" d="M1290.38 1567.06 L1290.38 1561.2 Q1292.79 1562.35 1295.28 1562.95 Q1297.76 1563.56 1300.15 1563.56 Q1306.51 1563.56 1309.85 1559.29 Q1313.23 1554.99 1313.71 1546.27 Q1311.86 1549.01 1309.03 1550.47 Q1306.19 1551.94 1302.76 1551.94 Q1295.63 1551.94 1291.46 1547.64 Q1287.32 1543.31 1287.32 1535.83 Q1287.32 1528.51 1291.65 1524.09 Q1295.98 1519.66 1303.17 1519.66 Q1311.41 1519.66 1315.74 1526 Q1320.1 1532.3 1320.1 1544.33 Q1320.1 1555.57 1314.76 1562.28 Q1309.44 1568.97 1300.43 1568.97 Q1298.01 1568.97 1295.53 1568.49 Q1293.05 1568.01 1290.38 1567.06 M1303.17 1546.91 Q1307.5 1546.91 1310.01 1543.95 Q1312.56 1540.99 1312.56 1535.83 Q1312.56 1530.71 1310.01 1527.75 Q1307.5 1524.76 1303.17 1524.76 Q1298.84 1524.76 1296.3 1527.75 Q1293.78 1530.71 1293.78 1535.83 Q1293.78 1540.99 1296.3 1543.95 Q1298.84 1546.91 1303.17 1546.91 Z" fill="#000000" fill-rule="evenodd" fill-opacity="1"></path><path clip-path="url(#clip180)" d="M1332.77 1562.63 L1343.27 1562.63 L1343.27 1526.38 L1331.85 1528.67 L1331.85 1522.82 L1343.21 1520.52 L1349.64 1520.52 L1349.64 1562.63 L1360.14 1562.63 L1360.14 1568.04 L1332.77 1568.04 L1332.77 1562.63 Z" fill="#000000" fill-rule="evenodd" fill-opacity="1"></path><path clip-path="url(#clip180)" d="M1374.24 1562.63 L1384.75 1562.63 L1384.75 1526.38 L1373.32 1528.67 L1373.32 1522.82 L1384.68 1520.52 L1391.11 1520.52 L1391.11 1562.63 L1401.62 1562.63 L1401.62 1568.04 L1374.24 1568.04 L1374.24 1562.63 Z" fill="#000000" fill-rule="evenodd" fill-opacity="1"></path><path clip-path="url(#clip180)" d="M1412.85 1518.58 L1417.94 1518.58 Q1422.72 1526.09 1425.07 1533.29 Q1427.46 1540.48 1427.46 1547.58 Q1427.46 1554.71 1425.07 1561.93 Q1422.72 1569.16 1417.94 1576.64 L1412.85 1576.64 Q1417.08 1569.35 1419.15 1562.16 Q1421.25 1554.93 1421.25 1547.58 Q1421.25 1540.23 1419.15 1533.06 Q1417.08 1525.9 1412.85 1518.58 Z" fill="#000000" fill-rule="evenodd" fill-opacity="1"></path><path clip-path="url(#clip180)" d="M1465.59 1562.7 L1465.59 1581.6 L1459.7 1581.6 L1459.7 1532.4 L1465.59 1532.4 L1465.59 1537.81 Q1467.44 1534.62 1470.24 1533.1 Q1473.07 1531.54 1476.99 1531.54 Q1483.48 1531.54 1487.52 1536.69 Q1491.59 1541.85 1491.59 1550.25 Q1491.59 1558.65 1487.52 1563.81 Q1483.48 1568.97 1476.99 1568.97 Q1473.07 1568.97 1470.24 1567.44 Q1467.44 1565.88 1465.59 1562.7 M1485.52 1550.25 Q1485.52 1543.79 1482.84 1540.13 Q1480.2 1536.44 1475.55 1536.44 Q1470.91 1536.44 1468.23 1540.13 Q1465.59 1543.79 1465.59 1550.25 Q1465.59 1556.71 1468.23 1560.4 Q1470.91 1564.07 1475.55 1564.07 Q1480.2 1564.07 1482.84 1560.4 Q1485.52 1556.71 1485.52 1550.25 Z" fill="#000000" fill-rule="evenodd" fill-opacity="1"></path><path clip-path="url(#clip180)" d="M1531.79 1548.76 L1531.79 1551.62 L1504.87 1551.62 Q1505.25 1557.67 1508.5 1560.85 Q1511.77 1564 1517.6 1564 Q1520.97 1564 1524.12 1563.17 Q1527.31 1562.35 1530.43 1560.69 L1530.43 1566.23 Q1527.27 1567.57 1523.96 1568.27 Q1520.65 1568.97 1517.25 1568.97 Q1508.72 1568.97 1503.72 1564 Q1498.76 1559.04 1498.76 1550.57 Q1498.76 1541.82 1503.47 1536.69 Q1508.21 1531.54 1516.23 1531.54 Q1523.42 1531.54 1527.59 1536.18 Q1531.79 1540.8 1531.79 1548.76 M1525.94 1547.04 Q1525.87 1542.23 1523.23 1539.37 Q1520.62 1536.5 1516.29 1536.5 Q1511.39 1536.5 1508.43 1539.27 Q1505.5 1542.04 1505.06 1547.07 L1525.94 1547.04 Z" fill="#000000" fill-rule="evenodd" fill-opacity="1"></path><path clip-path="url(#clip180)" d="M1562.06 1537.87 Q1561.08 1537.3 1559.9 1537.04 Q1558.75 1536.76 1557.35 1536.76 Q1552.39 1536.76 1549.71 1540 Q1547.07 1543.22 1547.07 1549.27 L1547.07 1568.04 L1541.18 1568.04 L1541.18 1532.4 L1547.07 1532.4 L1547.07 1537.93 Q1548.92 1534.69 1551.88 1533.13 Q1554.84 1531.54 1559.07 1531.54 Q1559.68 1531.54 1560.41 1531.63 Q1561.14 1531.7 1562.03 1531.85 L1562.06 1537.87 Z" fill="#000000" fill-rule="evenodd" fill-opacity="1"></path><path clip-path="url(#clip180)" d="M1590.87 1562.63 L1601.37 1562.63 L1601.37 1526.38 L1589.95 1528.67 L1589.95 1522.82 L1601.31 1520.52 L1607.74 1520.52 L1607.74 1562.63 L1618.24 1562.63 L1618.24 1568.04 L1590.87 1568.04 L1590.87 1562.63 Z" fill="#000000" fill-rule="evenodd" fill-opacity="1"></path><path clip-path="url(#clip180)" d="M1644.98 1524.76 Q1640.01 1524.76 1637.5 1529.66 Q1635.01 1534.53 1635.01 1544.33 Q1635.01 1554.1 1637.5 1559 Q1640.01 1563.87 1644.98 1563.87 Q1649.97 1563.87 1652.46 1559 Q1654.97 1554.1 1654.97 1544.33 Q1654.97 1534.53 1652.46 1529.66 Q1649.97 1524.76 1644.98 1524.76 M1644.98 1519.66 Q1652.97 1519.66 1657.17 1526 Q1661.4 1532.3 1661.4 1544.33 Q1661.4 1556.33 1657.17 1562.66 Q1652.97 1568.97 1644.98 1568.97 Q1636.99 1568.97 1632.75 1562.66 Q1628.55 1556.33 1628.55 1544.33 Q1628.55 1532.3 1632.75 1526 Q1636.99 1519.66 1644.98 1519.66 Z" fill="#000000" fill-rule="evenodd" fill-opacity="1"></path><path clip-path="url(#clip180)" d="M1686.45 1524.76 Q1681.48 1524.76 1678.97 1529.66 Q1676.49 1534.53 1676.49 1544.33 Q1676.49 1554.1 1678.97 1559 Q1681.48 1563.87 1686.45 1563.87 Q1691.45 1563.87 1693.93 1559 Q1696.44 1554.1 1696.44 1544.33 Q1696.44 1534.53 1693.93 1529.66 Q1691.45 1524.76 1686.45 1524.76 M1686.45 1519.66 Q1694.44 1519.66 1698.64 1526 Q1702.87 1532.3 1702.87 1544.33 Q1702.87 1556.33 1698.64 1562.66 Q1694.44 1568.97 1686.45 1568.97 Q1678.46 1568.97 1674.23 1562.66 Q1670.03 1556.33 1670.03 1544.33 Q1670.03 1532.3 1674.23 1526 Q1678.46 1519.66 1686.45 1519.66 Z" fill="#000000" fill-rule="evenodd" fill-opacity="1"></path><path clip-path="url(#clip180)" d="M1713.12 1518.52 L1719.01 1518.52 L1719.01 1547.77 L1736.48 1532.4 L1743.96 1532.4 L1725.06 1549.07 L1744.76 1568.04 L1737.12 1568.04 L1719.01 1550.63 L1719.01 1568.04 L1713.12 1568.04 L1713.12 1518.52 Z" fill="#000000" fill-rule="evenodd" fill-opacity="1"></path><path clip-path="url(#clip180)" d="M1794.54 1533.45 L1794.54 1538.98 Q1792.06 1537.71 1789.38 1537.07 Q1786.71 1536.44 1783.84 1536.44 Q1779.48 1536.44 1777.29 1537.77 Q1775.12 1539.11 1775.12 1541.79 Q1775.12 1543.82 1776.68 1545 Q1778.24 1546.15 1782.95 1547.2 L1784.96 1547.64 Q1791.2 1548.98 1793.81 1551.43 Q1796.45 1553.85 1796.45 1558.21 Q1796.45 1563.17 1792.5 1566.07 Q1788.59 1568.97 1781.71 1568.97 Q1778.85 1568.97 1775.73 1568.39 Q1772.64 1567.85 1769.2 1566.74 L1769.2 1560.69 Q1772.45 1562.38 1775.6 1563.24 Q1778.75 1564.07 1781.84 1564.07 Q1785.98 1564.07 1788.21 1562.66 Q1790.43 1561.23 1790.43 1558.65 Q1790.43 1556.27 1788.81 1554.99 Q1787.22 1553.72 1781.78 1552.54 L1779.74 1552.07 Q1774.3 1550.92 1771.88 1548.56 Q1769.46 1546.18 1769.46 1542.04 Q1769.46 1537.01 1773.02 1534.27 Q1776.59 1531.54 1783.14 1531.54 Q1786.39 1531.54 1789.26 1532.01 Q1792.12 1532.49 1794.54 1533.45 Z" fill="#000000" fill-rule="evenodd" fill-opacity="1"></path><path clip-path="url(#clip180)" d="M1836.27 1548.76 L1836.27 1551.62 L1809.34 1551.62 Q1809.72 1557.67 1812.97 1560.85 Q1816.25 1564 1822.07 1564 Q1825.44 1564 1828.6 1563.17 Q1831.78 1562.35 1834.9 1560.69 L1834.9 1566.23 Q1831.75 1567.57 1828.44 1568.27 Q1825.13 1568.97 1821.72 1568.97 Q1813.19 1568.97 1808.19 1564 Q1803.23 1559.04 1803.23 1550.57 Q1803.23 1541.82 1807.94 1536.69 Q1812.68 1531.54 1820.7 1531.54 Q1827.9 1531.54 1832.06 1536.18 Q1836.27 1540.8 1836.27 1548.76 M1830.41 1547.04 Q1830.35 1542.23 1827.7 1539.37 Q1825.09 1536.5 1820.77 1536.5 Q1815.86 1536.5 1812.9 1539.27 Q1809.98 1542.04 1809.53 1547.07 L1830.41 1547.04 Z" fill="#000000" fill-rule="evenodd" fill-opacity="1"></path><path clip-path="url(#clip180)" d="M1871.53 1533.76 L1871.53 1539.24 Q1869.05 1537.87 1866.54 1537.2 Q1864.05 1536.5 1861.51 1536.5 Q1855.81 1536.5 1852.66 1540.13 Q1849.51 1543.73 1849.51 1550.25 Q1849.51 1556.78 1852.66 1560.4 Q1855.81 1564 1861.51 1564 Q1864.05 1564 1866.54 1563.33 Q1869.05 1562.63 1871.53 1561.26 L1871.53 1566.68 Q1869.08 1567.82 1866.44 1568.39 Q1863.83 1568.97 1860.87 1568.97 Q1852.82 1568.97 1848.07 1563.91 Q1843.33 1558.85 1843.33 1550.25 Q1843.33 1541.53 1848.11 1536.53 Q1852.91 1531.54 1861.25 1531.54 Q1863.96 1531.54 1866.54 1532.11 Q1869.11 1532.65 1871.53 1533.76 Z" fill="#000000" fill-rule="evenodd" fill-opacity="1"></path><path clip-path="url(#clip180)" d="M1882.54 1559.96 L1889.26 1559.96 L1889.26 1568.04 L1882.54 1568.04 L1882.54 1559.96 Z" fill="#000000" fill-rule="evenodd" fill-opacity="1"></path><path clip-path="url(#clip180)" d="M1945.88 1533.45 L1945.88 1538.98 Q1943.4 1537.71 1940.73 1537.07 Q1938.05 1536.44 1935.19 1536.44 Q1930.83 1536.44 1928.63 1537.77 Q1926.47 1539.11 1926.47 1541.79 Q1926.47 1543.82 1928.03 1545 Q1929.59 1546.15 1934.3 1547.2 L1936.3 1547.64 Q1942.54 1548.98 1945.15 1551.43 Q1947.79 1553.85 1947.79 1558.21 Q1947.79 1563.17 1943.85 1566.07 Q1939.93 1568.97 1933.06 1568.97 Q1930.19 1568.97 1927.07 1568.39 Q1923.99 1567.85 1920.55 1566.74 L1920.55 1560.69 Q1923.79 1562.38 1926.95 1563.24 Q1930.1 1564.07 1933.18 1564.07 Q1937.32 1564.07 1939.55 1562.66 Q1941.78 1561.23 1941.78 1558.65 Q1941.78 1556.27 1940.15 1554.99 Q1938.56 1553.72 1933.12 1552.54 L1931.08 1552.07 Q1925.64 1550.92 1923.22 1548.56 Q1920.8 1546.18 1920.8 1542.04 Q1920.8 1537.01 1924.37 1534.27 Q1927.93 1531.54 1934.49 1531.54 Q1937.74 1531.54 1940.6 1532.01 Q1943.46 1532.49 1945.88 1533.45 Z" fill="#000000" fill-rule="evenodd" fill-opacity="1"></path><path clip-path="url(#clip180)" d="M1957.12 1532.4 L1962.98 1532.4 L1962.98 1568.04 L1957.12 1568.04 L1957.12 1532.4 M1957.12 1518.52 L1962.98 1518.52 L1962.98 1525.93 L1957.12 1525.93 L1957.12 1518.52 Z" fill="#000000" fill-rule="evenodd" fill-opacity="1"></path><path clip-path="url(#clip180)" d="M2002.98 1539.24 Q2005.18 1535.29 2008.24 1533.41 Q2011.29 1531.54 2015.43 1531.54 Q2021 1531.54 2024.02 1535.45 Q2027.05 1539.33 2027.05 1546.53 L2027.05 1568.04 L2021.16 1568.04 L2021.16 1546.72 Q2021.16 1541.59 2019.34 1539.11 Q2017.53 1536.63 2013.81 1536.63 Q2009.25 1536.63 2006.61 1539.65 Q2003.97 1542.68 2003.97 1547.9 L2003.97 1568.04 L1998.08 1568.04 L1998.08 1546.72 Q1998.08 1541.56 1996.27 1539.11 Q1994.45 1536.63 1990.67 1536.63 Q1986.18 1536.63 1983.54 1539.68 Q1980.9 1542.71 1980.9 1547.9 L1980.9 1568.04 L1975.01 1568.04 L1975.01 1532.4 L1980.9 1532.4 L1980.9 1537.93 Q1982.9 1534.66 1985.7 1533.1 Q1988.5 1531.54 1992.35 1531.54 Q1996.24 1531.54 1998.94 1533.51 Q2001.68 1535.48 2002.98 1539.24 Z" fill="#000000" fill-rule="evenodd" fill-opacity="1"></path><polyline clip-path="url(#clip182)" style="stroke:#000000; stroke-linecap:round; stroke-linejoin:round; stroke-width:2; stroke-opacity:0.1; fill:none" points="
  203.964,1387.51 2352.76,1387.51 
  "></polyline>
<polyline clip-path="url(#clip182)" style="stroke:#000000; stroke-linecap:round; stroke-linejoin:round; stroke-width:2; stroke-opacity:0.1; fill:none" points="
  203.964,953.736 2352.76,953.736 
  "></polyline>
<polyline clip-path="url(#clip182)" style="stroke:#000000; stroke-linecap:round; stroke-linejoin:round; stroke-width:2; stroke-opacity:0.1; fill:none" points="
  203.964,519.961 2352.76,519.961 
  "></polyline>
<polyline clip-path="url(#clip182)" style="stroke:#000000; stroke-linecap:round; stroke-linejoin:round; stroke-width:2; stroke-opacity:0.1; fill:none" points="
  203.964,86.1857 2352.76,86.1857 
  "></polyline>
<polyline clip-path="url(#clip180)" style="stroke:#000000; stroke-linecap:round; stroke-linejoin:round; stroke-width:4; stroke-opacity:1; fill:none" points="
  203.964,1423.18 203.964,47.2441 
  "></polyline>
<polyline clip-path="url(#clip180)" style="stroke:#000000; stroke-linecap:round; stroke-linejoin:round; stroke-width:4; stroke-opacity:1; fill:none" points="
  203.964,1387.51 222.861,1387.51 
  "></polyline>
<polyline clip-path="url(#clip180)" style="stroke:#000000; stroke-linecap:round; stroke-linejoin:round; stroke-width:4; stroke-opacity:1; fill:none" points="
  203.964,953.736 222.861,953.736 
  "></polyline>
<polyline clip-path="url(#clip180)" style="stroke:#000000; stroke-linecap:round; stroke-linejoin:round; stroke-width:4; stroke-opacity:1; fill:none" points="
  203.964,519.961 222.861,519.961 
  "></polyline>
<polyline clip-path="url(#clip180)" style="stroke:#000000; stroke-linecap:round; stroke-linejoin:round; stroke-width:4; stroke-opacity:1; fill:none" points="
  203.964,86.1857 222.861,86.1857 
  "></polyline>
<path clip-path="url(#clip180)" d="M156.019 1373.31 Q152.408 1373.31 150.579 1376.88 Q148.774 1380.42 148.774 1387.55 Q148.774 1394.65 150.579 1398.22 Q152.408 1401.76 156.019 1401.76 Q159.653 1401.76 161.459 1398.22 Q163.288 1394.65 163.288 1387.55 Q163.288 1380.42 161.459 1376.88 Q159.653 1373.31 156.019 1373.31 M156.019 1369.61 Q161.829 1369.61 164.885 1374.21 Q167.964 1378.8 167.964 1387.55 Q167.964 1396.27 164.885 1400.88 Q161.829 1405.46 156.019 1405.46 Q150.209 1405.46 147.13 1400.88 Q144.075 1396.27 144.075 1387.55 Q144.075 1378.8 147.13 1374.21 Q150.209 1369.61 156.019 1369.61 Z" fill="#000000" fill-rule="evenodd" fill-opacity="1"></path><path clip-path="url(#clip180)" d="M116.668 967.081 L124.306 967.081 L124.306 940.716 L115.996 942.382 L115.996 938.123 L124.26 936.456 L128.936 936.456 L128.936 967.081 L136.575 967.081 L136.575 971.016 L116.668 971.016 L116.668 967.081 Z" fill="#000000" fill-rule="evenodd" fill-opacity="1"></path><path clip-path="url(#clip180)" d="M156.019 939.535 Q152.408 939.535 150.579 943.1 Q148.774 946.642 148.774 953.771 Q148.774 960.878 150.579 964.442 Q152.408 967.984 156.019 967.984 Q159.653 967.984 161.459 964.442 Q163.288 960.878 163.288 953.771 Q163.288 946.642 161.459 943.1 Q159.653 939.535 156.019 939.535 M156.019 935.831 Q161.829 935.831 164.885 940.438 Q167.964 945.021 167.964 953.771 Q167.964 962.498 164.885 967.104 Q161.829 971.688 156.019 971.688 Q150.209 971.688 147.13 967.104 Q144.075 962.498 144.075 953.771 Q144.075 945.021 147.13 940.438 Q150.209 935.831 156.019 935.831 Z" fill="#000000" fill-rule="evenodd" fill-opacity="1"></path><path clip-path="url(#clip180)" d="M119.885 533.306 L136.204 533.306 L136.204 537.241 L114.26 537.241 L114.26 533.306 Q116.922 530.551 121.505 525.922 Q126.112 521.269 127.292 519.926 Q129.538 517.403 130.417 515.667 Q131.32 513.908 131.32 512.218 Q131.32 509.463 129.376 507.727 Q127.455 505.991 124.353 505.991 Q122.154 505.991 119.7 506.755 Q117.269 507.519 114.492 509.07 L114.492 504.348 Q117.316 503.213 119.769 502.635 Q122.223 502.056 124.26 502.056 Q129.63 502.056 132.825 504.741 Q136.019 507.426 136.019 511.917 Q136.019 514.047 135.209 515.968 Q134.422 517.866 132.316 520.459 Q131.737 521.13 128.635 524.348 Q125.533 527.542 119.885 533.306 Z" fill="#000000" fill-rule="evenodd" fill-opacity="1"></path><path clip-path="url(#clip180)" d="M156.019 505.76 Q152.408 505.76 150.579 509.325 Q148.774 512.866 148.774 519.996 Q148.774 527.102 150.579 530.667 Q152.408 534.209 156.019 534.209 Q159.653 534.209 161.459 530.667 Q163.288 527.102 163.288 519.996 Q163.288 512.866 161.459 509.325 Q159.653 505.76 156.019 505.76 M156.019 502.056 Q161.829 502.056 164.885 506.663 Q167.964 511.246 167.964 519.996 Q167.964 528.723 164.885 533.329 Q161.829 537.912 156.019 537.912 Q150.209 537.912 147.13 533.329 Q144.075 528.723 144.075 519.996 Q144.075 511.246 147.13 506.663 Q150.209 502.056 156.019 502.056 Z" fill="#000000" fill-rule="evenodd" fill-opacity="1"></path><path clip-path="url(#clip180)" d="M130.024 84.8315 Q133.38 85.5491 135.255 87.8176 Q137.154 90.0861 137.154 93.4194 Q137.154 98.5351 133.635 101.336 Q130.117 104.137 123.635 104.137 Q121.459 104.137 119.144 103.697 Q116.853 103.28 114.399 102.424 L114.399 97.9101 Q116.343 99.0444 118.658 99.6231 Q120.973 100.202 123.496 100.202 Q127.894 100.202 130.186 98.4657 Q132.501 96.7296 132.501 93.4194 Q132.501 90.3639 130.348 88.6509 Q128.218 86.9148 124.399 86.9148 L120.371 86.9148 L120.371 83.0723 L124.584 83.0723 Q128.033 83.0723 129.862 81.7065 Q131.691 80.3176 131.691 77.7251 Q131.691 75.063 129.792 73.651 Q127.917 72.2158 124.399 72.2158 Q122.478 72.2158 120.279 72.6325 Q118.08 73.0492 115.441 73.9288 L115.441 69.7621 Q118.103 69.0214 120.418 68.651 Q122.755 68.2807 124.816 68.2807 Q130.14 68.2807 133.242 70.7112 Q136.343 73.1186 136.343 77.239 Q136.343 80.1093 134.7 82.1 Q133.056 84.0676 130.024 84.8315 Z" fill="#000000" fill-rule="evenodd" fill-opacity="1"></path><path clip-path="url(#clip180)" d="M156.019 71.9844 Q152.408 71.9844 150.579 75.5492 Q148.774 79.0908 148.774 86.2204 Q148.774 93.3268 150.579 96.8916 Q152.408 100.433 156.019 100.433 Q159.653 100.433 161.459 96.8916 Q163.288 93.3268 163.288 86.2204 Q163.288 79.0908 161.459 75.5492 Q159.653 71.9844 156.019 71.9844 M156.019 68.2807 Q161.829 68.2807 164.885 72.8871 Q167.964 77.4704 167.964 86.2204 Q167.964 94.9472 164.885 99.5537 Q161.829 104.137 156.019 104.137 Q150.209 104.137 147.13 99.5537 Q144.075 94.9472 144.075 86.2204 Q144.075 77.4704 147.13 72.8871 Q150.209 68.2807 156.019 68.2807 Z" fill="#000000" fill-rule="evenodd" fill-opacity="1"></path><path clip-path="url(#clip180)" d="M16.4842 893.495 L16.4842 884.838 L56.238 863.767 L16.4842 863.767 L16.4842 857.529 L64.0042 857.529 L64.0042 866.186 L24.2503 887.257 L64.0042 887.257 L64.0042 893.495 L16.4842 893.495 Z" fill="#000000" fill-rule="evenodd" fill-opacity="1"></path><path clip-path="url(#clip180)" d="M32.4621 831.175 Q32.4621 835.886 36.1542 838.623 Q39.8145 841.36 46.212 841.36 Q52.6095 841.36 56.3017 838.655 Q59.9619 835.917 59.9619 831.175 Q59.9619 826.496 56.2698 823.759 Q52.5777 821.022 46.212 821.022 Q39.8781 821.022 36.186 823.759 Q32.4621 826.496 32.4621 831.175 M27.4968 831.175 Q27.4968 823.536 32.4621 819.176 Q37.4273 814.815 46.212 814.815 Q54.9649 814.815 59.9619 819.176 Q64.9272 823.536 64.9272 831.175 Q64.9272 838.846 59.9619 843.206 Q54.9649 847.535 46.212 847.535 Q37.4273 847.535 32.4621 843.206 Q27.4968 838.846 27.4968 831.175 Z" fill="#000000" fill-rule="evenodd" fill-opacity="1"></path><path clip-path="url(#clip180)" d="M32.4621 770.573 Q32.4621 775.284 36.1542 778.021 Q39.8145 780.759 46.212 780.759 Q52.6095 780.759 56.3017 778.053 Q59.9619 775.316 59.9619 770.573 Q59.9619 765.895 56.2698 763.157 Q52.5777 760.42 46.212 760.42 Q39.8781 760.42 36.186 763.157 Q32.4621 765.895 32.4621 770.573 M27.4968 770.573 Q27.4968 762.935 32.4621 758.574 Q37.4273 754.214 46.212 754.214 Q54.9649 754.214 59.9619 758.574 Q64.9272 762.935 64.9272 770.573 Q64.9272 778.244 59.9619 782.605 Q54.9649 786.933 46.212 786.933 Q37.4273 786.933 32.4621 782.605 Q27.4968 778.244 27.4968 770.573 Z" fill="#000000" fill-rule="evenodd" fill-opacity="1"></path><path clip-path="url(#clip180)" d="M14.479 726.459 L19.3487 726.459 L19.3487 732.061 Q19.3487 735.212 20.6219 736.453 Q21.895 737.663 25.2052 737.663 L28.3562 737.663 L28.3562 728.019 L32.9077 728.019 L32.9077 737.663 L64.0042 737.663 L64.0042 743.551 L32.9077 743.551 L32.9077 749.153 L28.3562 749.153 L28.3562 743.551 L25.8736 743.551 Q19.9216 743.551 17.2162 740.782 Q14.479 738.013 14.479 731.997 L14.479 726.459 Z" fill="#000000" fill-rule="evenodd" fill-opacity="1"></path><path clip-path="url(#clip180)" d="M14.479 682.79 L19.3487 682.79 L19.3487 688.392 Q19.3487 691.543 20.6219 692.785 Q21.895 693.994 25.2052 693.994 L28.3562 693.994 L28.3562 684.35 L32.9077 684.35 L32.9077 693.994 L64.0042 693.994 L64.0042 699.882 L32.9077 699.882 L32.9077 705.484 L28.3562 705.484 L28.3562 699.882 L25.8736 699.882 Q19.9216 699.882 17.2162 697.113 Q14.479 694.344 14.479 688.329 L14.479 682.79 Z" fill="#000000" fill-rule="evenodd" fill-opacity="1"></path><path clip-path="url(#clip180)" d="M28.3562 677.889 L28.3562 672.032 L64.0042 672.032 L64.0042 677.889 L28.3562 677.889 M14.479 677.889 L14.479 672.032 L21.895 672.032 L21.895 677.889 L14.479 677.889 Z" fill="#000000" fill-rule="evenodd" fill-opacity="1"></path><path clip-path="url(#clip180)" d="M14.479 659.778 L14.479 653.922 L64.0042 653.922 L64.0042 659.778 L14.479 659.778 Z" fill="#000000" fill-rule="evenodd" fill-opacity="1"></path><path clip-path="url(#clip180)" d="M44.7161 611.176 L47.5806 611.176 L47.5806 638.103 Q53.6281 637.721 56.8109 634.475 Q59.9619 631.196 59.9619 625.372 Q59.9619 621.998 59.1344 618.847 Q58.3069 615.664 56.6518 612.545 L62.1899 612.545 Q63.5267 615.696 64.227 619.006 Q64.9272 622.316 64.9272 625.722 Q64.9272 634.252 59.9619 639.249 Q54.9967 644.214 46.5303 644.214 Q37.7774 644.214 32.6531 639.504 Q27.4968 634.761 27.4968 626.74 Q27.4968 619.547 32.1438 615.378 Q36.7589 611.176 44.7161 611.176 M42.9973 617.033 Q38.1912 617.096 35.3266 619.738 Q32.4621 622.348 32.4621 626.677 Q32.4621 631.578 35.2312 634.538 Q38.0002 637.467 43.0292 637.912 L42.9973 617.033 Z" fill="#000000" fill-rule="evenodd" fill-opacity="1"></path><path clip-path="url(#clip180)" d="M29.4065 578.838 L34.9447 578.838 Q33.6716 581.321 33.035 583.995 Q32.3984 586.668 32.3984 589.533 Q32.3984 593.893 33.7352 596.089 Q35.072 598.254 37.7456 598.254 Q39.7826 598.254 40.9603 596.694 Q42.1061 595.135 43.1565 590.424 L43.6021 588.419 Q44.9389 582.18 47.3897 579.57 Q49.8086 576.929 54.1691 576.929 Q59.1344 576.929 62.0308 580.875 Q64.9272 584.79 64.9272 591.665 Q64.9272 594.53 64.3543 597.649 Q63.8132 600.736 62.6992 604.174 L56.6518 604.174 Q58.3387 600.927 59.198 597.776 Q60.0256 594.625 60.0256 591.538 Q60.0256 587.4 58.6251 585.172 Q57.1929 582.944 54.6147 582.944 Q52.2276 582.944 50.9545 584.568 Q49.6813 586.159 48.5037 591.602 L48.0262 593.639 Q46.8804 599.081 44.5251 601.5 Q42.138 603.919 38.0002 603.919 Q32.9713 603.919 30.2341 600.354 Q27.4968 596.79 27.4968 590.233 Q27.4968 586.986 27.9743 584.122 Q28.4517 581.257 29.4065 578.838 Z" fill="#000000" fill-rule="evenodd" fill-opacity="1"></path><polyline clip-path="url(#clip182)" style="stroke:#009af9; stroke-linecap:round; stroke-linejoin:round; stroke-width:4; stroke-opacity:1; fill:none" points="
  264.778,1300.76 490.019,1300.76 490.019,1344.13 715.259,1344.13 715.259,1300.76 940.499,1300.76 940.499,866.981 1165.74,866.981 1165.74,86.1857 1390.98,86.1857 
  1390.98,303.073 1616.22,303.073 1616.22,693.471 1841.46,693.471 1841.46,953.736 2066.7,953.736 2066.7,1344.13 2291.94,1344.13 
  "></polyline>
<polyline clip-path="url(#clip182)" style="stroke:#e26f46; stroke-linecap:round; stroke-linejoin:round; stroke-width:4; stroke-opacity:1; fill:none" points="
  377.399,1384.24 395.6,1383.49 413.801,1382.59 432.002,1381.51 450.204,1380.21 468.405,1378.67 486.606,1376.85 504.807,1374.69 523.008,1372.15 541.21,1369.18 
  559.411,1365.71 577.612,1361.68 595.813,1357.02 614.015,1351.64 632.216,1345.47 650.417,1338.42 668.618,1330.39 686.82,1321.28 705.021,1311.01 723.222,1299.46 
  741.423,1286.53 759.625,1272.13 777.826,1256.14 796.027,1238.49 814.228,1219.07 832.429,1197.82 850.631,1174.65 868.832,1149.53 887.033,1122.4 905.234,1093.24 
  923.436,1062.07 941.637,1028.89 959.838,993.768 978.039,956.768 996.241,917.999 1014.44,877.593 1032.64,835.715 1050.84,792.562 1069.05,748.356 1087.25,703.353 
  1105.45,657.834 1123.65,612.105 1141.85,566.494 1160.05,521.349 1178.25,477.031 1196.45,433.912 1214.66,392.368 1232.86,352.776 1251.06,315.505 1269.26,280.914 
  1287.46,249.345 1305.66,221.114 1323.86,196.513 1342.06,175.797 1360.27,159.186 1378.47,146.857 1396.67,138.943 1414.87,135.53 1433.07,136.654 1451.27,142.303 
  1469.47,152.416 1487.67,166.884 1505.88,185.552 1524.08,208.221 1542.28,234.654 1560.48,264.575 1578.68,297.682 1596.88,333.643 1615.08,372.109 1633.28,412.714 
  1651.49,455.085 1669.69,498.844 1687.89,543.618 1706.09,589.037 1724.29,634.749 1742.49,680.414 1760.69,725.715 1778.89,770.356 1797.09,814.071 1815.3,856.619 
  1833.5,897.791 1851.7,937.405 1869.9,975.314 1888.1,1011.4 1906.3,1045.56 1924.5,1077.75 1942.7,1107.93 1960.91,1136.08 1979.11,1162.21 1997.31,1186.36 
  2015.51,1208.57 2033.71,1228.91 2051.91,1247.44 2070.11,1264.26 2088.31,1279.45 2106.52,1293.11 2124.72,1305.34 2142.92,1316.25 2161.12,1325.93 2179.32,1334.49 
  
  "></polyline>
<path clip-path="url(#clip180)" d="
M1414.21 196.789 L2281.13 196.789 L2281.13 93.1086 L1414.21 93.1086  Z
  " fill="#ffffff" fill-rule="evenodd" fill-opacity="1"></path>
<polyline clip-path="url(#clip180)" style="stroke:#000000; stroke-linecap:round; stroke-linejoin:round; stroke-width:4; stroke-opacity:1; fill:none" points="
  1414.21,196.789 2281.13,196.789 2281.13,93.1086 1414.21,93.1086 1414.21,196.789 
  "></polyline>
<polyline clip-path="url(#clip180)" style="stroke:#e26f46; stroke-linecap:round; stroke-linejoin:round; stroke-width:4; stroke-opacity:1; fill:none" points="
  1438.08,144.949 1581.34,144.949 
  "></polyline>
<path clip-path="url(#clip180)" d="M1631 159.914 L1613.73 129.983 L1608.22 129.983 L1625.49 159.914 L1631 159.914 M1605.21 127.669 L1615.03 127.669 L1631.69 156.581 L1631.69 127.669 L1634.01 127.669 L1634.01 162.229 L1624.19 162.229 L1607.53 133.317 L1607.53 162.229 L1605.21 162.229 L1605.21 127.669 Z" fill="#000000" fill-rule="evenodd" fill-opacity="1"></path><path clip-path="url(#clip180)" d="M1653.29 126.257 Q1650.19 131.581 1648.68 136.789 Q1647.18 141.997 1647.18 147.344 Q1647.18 152.692 1648.68 157.946 Q1650.21 163.178 1653.29 168.479 L1649.59 168.479 Q1646.11 163.039 1644.38 157.784 Q1642.66 152.53 1642.66 147.344 Q1642.66 142.182 1644.38 136.951 Q1646.09 131.72 1649.59 126.257 L1653.29 126.257 Z" fill="#000000" fill-rule="evenodd" fill-opacity="1"></path><path clip-path="url(#clip180)" d="M1661.11 172.09 L1661.11 136.303 L1665.37 136.303 L1665.37 152.414 Q1665.37 155.77 1666.97 157.483 Q1668.57 159.196 1671.69 159.196 Q1675.12 159.196 1676.83 157.252 Q1678.57 155.307 1678.57 151.418 L1678.57 136.303 L1682.83 136.303 L1682.83 156.256 Q1682.83 157.645 1683.22 158.317 Q1683.64 158.965 1684.49 158.965 Q1684.7 158.965 1685.07 158.849 Q1685.44 158.71 1686.09 158.432 L1686.09 161.858 Q1685.14 162.391 1684.28 162.645 Q1683.45 162.9 1682.64 162.9 Q1681.04 162.9 1680.09 161.997 Q1679.15 161.094 1678.8 159.243 Q1677.64 161.071 1675.95 161.997 Q1674.28 162.9 1672.02 162.9 Q1669.65 162.9 1667.99 161.997 Q1666.34 161.094 1665.37 159.289 L1665.37 172.09 L1661.11 172.09 Z" fill="#000000" fill-rule="evenodd" fill-opacity="1"></path><path clip-path="url(#clip180)" d="M1692.27 140.701 L1721.95 140.701 L1721.95 144.59 L1692.27 144.59 L1692.27 140.701 M1692.27 150.145 L1721.95 150.145 L1721.95 154.081 L1692.27 154.081 L1692.27 150.145 Z" fill="#000000" fill-rule="evenodd" fill-opacity="1"></path><path clip-path="url(#clip180)" d="M1742.62 143.085 Q1739.47 143.085 1737.62 145.238 Q1735.79 147.391 1735.79 151.141 Q1735.79 154.868 1737.62 157.043 Q1739.47 159.196 1742.62 159.196 Q1745.77 159.196 1747.59 157.043 Q1749.45 154.868 1749.45 151.141 Q1749.45 147.391 1747.59 145.238 Q1745.77 143.085 1742.62 143.085 M1751.9 128.433 L1751.9 132.692 Q1750.14 131.858 1748.33 131.419 Q1746.55 130.979 1744.79 130.979 Q1740.16 130.979 1737.71 134.104 Q1735.28 137.229 1734.93 143.548 Q1736.3 141.534 1738.36 140.469 Q1740.42 139.382 1742.9 139.382 Q1748.1 139.382 1751.11 142.553 Q1754.15 145.701 1754.15 151.141 Q1754.15 156.465 1751 159.682 Q1747.85 162.9 1742.62 162.9 Q1736.62 162.9 1733.45 158.317 Q1730.28 153.71 1730.28 144.983 Q1730.28 136.789 1734.17 131.928 Q1738.06 127.044 1744.61 127.044 Q1746.37 127.044 1748.15 127.391 Q1749.96 127.738 1751.9 128.433 Z" fill="#000000" fill-rule="evenodd" fill-opacity="1"></path><path clip-path="url(#clip180)" d="M1772.2 130.747 Q1768.59 130.747 1766.76 134.312 Q1764.96 137.854 1764.96 144.983 Q1764.96 152.09 1766.76 155.655 Q1768.59 159.196 1772.2 159.196 Q1775.83 159.196 1777.64 155.655 Q1779.47 152.09 1779.47 144.983 Q1779.47 137.854 1777.64 134.312 Q1775.83 130.747 1772.2 130.747 M1772.2 127.044 Q1778.01 127.044 1781.07 131.65 Q1784.14 136.233 1784.14 144.983 Q1784.14 153.71 1781.07 158.317 Q1778.01 162.9 1772.2 162.9 Q1766.39 162.9 1763.31 158.317 Q1760.26 153.71 1760.26 144.983 Q1760.26 136.233 1763.31 131.65 Q1766.39 127.044 1772.2 127.044 Z" fill="#000000" fill-rule="evenodd" fill-opacity="1"></path><path clip-path="url(#clip180)" d="M1796.39 158.293 L1812.71 158.293 L1812.71 162.229 L1790.77 162.229 L1790.77 158.293 Q1793.43 155.539 1798.01 150.909 Q1802.62 146.256 1803.8 144.914 Q1806.04 142.391 1806.92 140.655 Q1807.83 138.895 1807.83 137.206 Q1807.83 134.451 1805.88 132.715 Q1803.96 130.979 1800.86 130.979 Q1798.66 130.979 1796.2 131.743 Q1793.77 132.507 1791 134.057 L1791 129.335 Q1793.82 128.201 1796.27 127.622 Q1798.73 127.044 1800.77 127.044 Q1806.14 127.044 1809.33 129.729 Q1812.52 132.414 1812.52 136.905 Q1812.52 139.034 1811.71 140.956 Q1810.93 142.854 1808.82 145.446 Q1808.24 146.118 1805.14 149.335 Q1802.04 152.53 1796.39 158.293 Z" fill="#000000" fill-rule="evenodd" fill-opacity="1"></path><path clip-path="url(#clip180)" d="M1826.55 158.293 L1842.87 158.293 L1842.87 162.229 L1820.93 162.229 L1820.93 158.293 Q1823.59 155.539 1828.17 150.909 Q1832.78 146.256 1833.96 144.914 Q1836.2 142.391 1837.08 140.655 Q1837.99 138.895 1837.99 137.206 Q1837.99 134.451 1836.04 132.715 Q1834.12 130.979 1831.02 130.979 Q1828.82 130.979 1826.37 131.743 Q1823.94 132.507 1821.16 134.057 L1821.16 129.335 Q1823.98 128.201 1826.44 127.622 Q1828.89 127.044 1830.93 127.044 Q1836.3 127.044 1839.49 129.729 Q1842.69 132.414 1842.69 136.905 Q1842.69 139.034 1841.88 140.956 Q1841.09 142.854 1838.98 145.446 Q1838.4 146.118 1835.3 149.335 Q1832.2 152.53 1826.55 158.293 Z" fill="#000000" fill-rule="evenodd" fill-opacity="1"></path><path clip-path="url(#clip180)" d="M1852.73 127.669 L1871.09 127.669 L1871.09 131.604 L1857.01 131.604 L1857.01 140.076 Q1858.03 139.729 1859.05 139.567 Q1860.07 139.382 1861.09 139.382 Q1866.88 139.382 1870.26 142.553 Q1873.64 145.724 1873.64 151.141 Q1873.64 156.719 1870.16 159.821 Q1866.69 162.9 1860.37 162.9 Q1858.2 162.9 1855.93 162.53 Q1853.68 162.159 1851.27 161.418 L1851.27 156.719 Q1853.36 157.854 1855.58 158.409 Q1857.8 158.965 1860.28 158.965 Q1864.28 158.965 1866.62 156.858 Q1868.96 154.752 1868.96 151.141 Q1868.96 147.53 1866.62 145.423 Q1864.28 143.317 1860.28 143.317 Q1858.4 143.317 1856.53 143.733 Q1854.68 144.15 1852.73 145.03 L1852.73 127.669 Z" fill="#000000" fill-rule="evenodd" fill-opacity="1"></path><path clip-path="url(#clip180)" d="M1882.85 156.349 L1887.73 156.349 L1887.73 162.229 L1882.85 162.229 L1882.85 156.349 Z" fill="#000000" fill-rule="evenodd" fill-opacity="1"></path><path clip-path="url(#clip180)" d="M1901.95 158.293 L1918.26 158.293 L1918.26 162.229 L1896.32 162.229 L1896.32 158.293 Q1898.98 155.539 1903.57 150.909 Q1908.17 146.256 1909.35 144.914 Q1911.6 142.391 1912.48 140.655 Q1913.38 138.895 1913.38 137.206 Q1913.38 134.451 1911.44 132.715 Q1909.51 130.979 1906.41 130.979 Q1904.21 130.979 1901.76 131.743 Q1899.33 132.507 1896.55 134.057 L1896.55 129.335 Q1899.38 128.201 1901.83 127.622 Q1904.28 127.044 1906.32 127.044 Q1911.69 127.044 1914.88 129.729 Q1918.08 132.414 1918.08 136.905 Q1918.08 139.034 1917.27 140.956 Q1916.48 142.854 1914.38 145.446 Q1913.8 146.118 1910.7 149.335 Q1907.59 152.53 1901.95 158.293 Z" fill="#000000" fill-rule="evenodd" fill-opacity="1"></path><path clip-path="url(#clip180)" d="M1928.22 161.511 L1928.22 157.252 Q1929.98 158.085 1931.78 158.525 Q1933.59 158.965 1935.32 158.965 Q1939.95 158.965 1942.38 155.863 Q1944.84 152.738 1945.19 146.395 Q1943.84 148.386 1941.78 149.451 Q1939.72 150.516 1937.22 150.516 Q1932.04 150.516 1929.01 147.391 Q1926 144.243 1926 138.803 Q1926 133.479 1929.14 130.261 Q1932.29 127.044 1937.52 127.044 Q1943.52 127.044 1946.67 131.65 Q1949.84 136.233 1949.84 144.983 Q1949.84 153.155 1945.95 158.039 Q1942.08 162.9 1935.53 162.9 Q1933.77 162.9 1931.97 162.553 Q1930.16 162.205 1928.22 161.511 M1937.52 146.858 Q1940.67 146.858 1942.5 144.706 Q1944.35 142.553 1944.35 138.803 Q1944.35 135.076 1942.5 132.923 Q1940.67 130.747 1937.52 130.747 Q1934.38 130.747 1932.52 132.923 Q1930.69 135.076 1930.69 138.803 Q1930.69 142.553 1932.52 144.706 Q1934.38 146.858 1937.52 146.858 Z" fill="#000000" fill-rule="evenodd" fill-opacity="1"></path><path clip-path="url(#clip180)" d="M1958.73 156.349 L1963.61 156.349 L1963.61 160.33 L1959.82 167.738 L1956.83 167.738 L1958.73 160.33 L1958.73 156.349 Z" fill="#000000" fill-rule="evenodd" fill-opacity="1"></path><path clip-path="url(#clip180)" d="M1997.82 139.682 Q1994.31 139.682 1992.41 142.229 Q1990.42 144.891 1990.42 149.289 Q1990.42 153.942 1992.38 156.627 Q1994.38 159.289 1997.82 159.289 Q2001.23 159.289 2003.22 156.604 Q2005.21 153.918 2005.21 149.289 Q2005.21 145.053 2003.22 142.229 Q2001.39 139.682 1997.82 139.682 M1997.82 136.303 L2011.97 136.303 L2011.97 140.562 L2007.2 140.562 Q2009.72 144.173 2009.72 149.289 Q2009.72 155.655 2006.55 159.266 Q2003.38 162.9 1997.82 162.9 Q1992.25 162.9 1989.1 159.266 Q1985.93 155.655 1985.93 149.289 Q1985.93 142.877 1989.1 139.289 Q1991.71 136.303 1997.82 136.303 Z" fill="#000000" fill-rule="evenodd" fill-opacity="1"></path><path clip-path="url(#clip180)" d="M2018.38 140.701 L2048.06 140.701 L2048.06 144.59 L2018.38 144.59 L2018.38 140.701 M2018.38 150.145 L2048.06 150.145 L2048.06 154.081 L2018.38 154.081 L2018.38 150.145 Z" fill="#000000" fill-rule="evenodd" fill-opacity="1"></path><path clip-path="url(#clip180)" d="M2062.18 158.293 L2078.5 158.293 L2078.5 162.229 L2056.55 162.229 L2056.55 158.293 Q2059.21 155.539 2063.8 150.909 Q2068.4 146.256 2069.58 144.914 Q2071.83 142.391 2072.71 140.655 Q2073.61 138.895 2073.61 137.206 Q2073.61 134.451 2071.67 132.715 Q2069.75 130.979 2066.64 130.979 Q2064.44 130.979 2061.99 131.743 Q2059.56 132.507 2056.78 134.057 L2056.78 129.335 Q2059.61 128.201 2062.06 127.622 Q2064.51 127.044 2066.55 127.044 Q2071.92 127.044 2075.12 129.729 Q2078.31 132.414 2078.31 136.905 Q2078.31 139.034 2077.5 140.956 Q2076.71 142.854 2074.61 145.446 Q2074.03 146.118 2070.93 149.335 Q2067.82 152.53 2062.18 158.293 Z" fill="#000000" fill-rule="evenodd" fill-opacity="1"></path><path clip-path="url(#clip180)" d="M2098.89 143.085 Q2095.74 143.085 2093.89 145.238 Q2092.06 147.391 2092.06 151.141 Q2092.06 154.868 2093.89 157.043 Q2095.74 159.196 2098.89 159.196 Q2102.04 159.196 2103.87 157.043 Q2105.72 154.868 2105.72 151.141 Q2105.72 147.391 2103.87 145.238 Q2102.04 143.085 2098.89 143.085 M2108.17 128.433 L2108.17 132.692 Q2106.41 131.858 2104.61 131.419 Q2102.82 130.979 2101.06 130.979 Q2096.43 130.979 2093.98 134.104 Q2091.55 137.229 2091.2 143.548 Q2092.57 141.534 2094.63 140.469 Q2096.69 139.382 2099.17 139.382 Q2104.37 139.382 2107.38 142.553 Q2110.42 145.701 2110.42 151.141 Q2110.42 156.465 2107.27 159.682 Q2104.12 162.9 2098.89 162.9 Q2092.89 162.9 2089.72 158.317 Q2086.55 153.71 2086.55 144.983 Q2086.55 136.789 2090.44 131.928 Q2094.33 127.044 2100.88 127.044 Q2102.64 127.044 2104.42 127.391 Q2106.23 127.738 2108.17 128.433 Z" fill="#000000" fill-rule="evenodd" fill-opacity="1"></path><path clip-path="url(#clip180)" d="M2128.47 145.817 Q2125.14 145.817 2123.22 147.599 Q2121.32 149.381 2121.32 152.506 Q2121.32 155.631 2123.22 157.414 Q2125.14 159.196 2128.47 159.196 Q2131.81 159.196 2133.73 157.414 Q2135.65 155.608 2135.65 152.506 Q2135.65 149.381 2133.73 147.599 Q2131.83 145.817 2128.47 145.817 M2123.8 143.826 Q2120.79 143.085 2119.1 141.025 Q2117.43 138.965 2117.43 136.002 Q2117.43 131.858 2120.37 129.451 Q2123.33 127.044 2128.47 127.044 Q2133.63 127.044 2136.57 129.451 Q2139.51 131.858 2139.51 136.002 Q2139.51 138.965 2137.82 141.025 Q2136.16 143.085 2133.17 143.826 Q2136.55 144.613 2138.43 146.905 Q2140.32 149.196 2140.32 152.506 Q2140.32 157.53 2137.24 160.215 Q2134.19 162.9 2128.47 162.9 Q2122.75 162.9 2119.68 160.215 Q2116.62 157.53 2116.62 152.506 Q2116.62 149.196 2118.52 146.905 Q2120.42 144.613 2123.8 143.826 M2122.08 136.442 Q2122.08 139.127 2123.75 140.632 Q2125.44 142.136 2128.47 142.136 Q2131.48 142.136 2133.17 140.632 Q2134.88 139.127 2134.88 136.442 Q2134.88 133.757 2133.17 132.252 Q2131.48 130.747 2128.47 130.747 Q2125.44 130.747 2123.75 132.252 Q2122.08 133.757 2122.08 136.442 Z" fill="#000000" fill-rule="evenodd" fill-opacity="1"></path><path clip-path="url(#clip180)" d="M2148.63 156.349 L2153.52 156.349 L2153.52 162.229 L2148.63 162.229 L2148.63 156.349 Z" fill="#000000" fill-rule="evenodd" fill-opacity="1"></path><path clip-path="url(#clip180)" d="M2177.87 143.594 Q2181.23 144.312 2183.1 146.581 Q2185 148.849 2185 152.182 Q2185 157.298 2181.48 160.099 Q2177.96 162.9 2171.48 162.9 Q2169.3 162.9 2166.99 162.46 Q2164.7 162.043 2162.24 161.187 L2162.24 156.673 Q2164.19 157.807 2166.5 158.386 Q2168.82 158.965 2171.34 158.965 Q2175.74 158.965 2178.03 157.229 Q2180.35 155.493 2180.35 152.182 Q2180.35 149.127 2178.19 147.414 Q2176.06 145.678 2172.24 145.678 L2168.22 145.678 L2168.22 141.835 L2172.43 141.835 Q2175.88 141.835 2177.71 140.469 Q2179.54 139.081 2179.54 136.488 Q2179.54 133.826 2177.64 132.414 Q2175.76 130.979 2172.24 130.979 Q2170.32 130.979 2168.12 131.395 Q2165.93 131.812 2163.29 132.692 L2163.29 128.525 Q2165.95 127.784 2168.26 127.414 Q2170.6 127.044 2172.66 127.044 Q2177.99 127.044 2181.09 129.474 Q2184.19 131.882 2184.19 136.002 Q2184.19 138.872 2182.55 140.863 Q2180.9 142.831 2177.87 143.594 Z" fill="#000000" fill-rule="evenodd" fill-opacity="1"></path><path clip-path="url(#clip180)" d="M2203.86 130.747 Q2200.25 130.747 2198.43 134.312 Q2196.62 137.854 2196.62 144.983 Q2196.62 152.09 2198.43 155.655 Q2200.25 159.196 2203.86 159.196 Q2207.5 159.196 2209.3 155.655 Q2211.13 152.09 2211.13 144.983 Q2211.13 137.854 2209.3 134.312 Q2207.5 130.747 2203.86 130.747 M2203.86 127.044 Q2209.67 127.044 2212.73 131.65 Q2215.81 136.233 2215.81 144.983 Q2215.81 153.71 2212.73 158.317 Q2209.67 162.9 2203.86 162.9 Q2198.05 162.9 2194.98 158.317 Q2191.92 153.71 2191.92 144.983 Q2191.92 136.233 2194.98 131.65 Q2198.05 127.044 2203.86 127.044 Z" fill="#000000" fill-rule="evenodd" fill-opacity="1"></path><path clip-path="url(#clip180)" d="M2222.75 126.257 L2226.46 126.257 Q2229.93 131.72 2231.64 136.951 Q2233.38 142.182 2233.38 147.344 Q2233.38 152.53 2231.64 157.784 Q2229.93 163.039 2226.46 168.479 L2222.75 168.479 Q2225.83 163.178 2227.34 157.946 Q2228.86 152.692 2228.86 147.344 Q2228.86 141.997 2227.34 136.789 Q2225.83 131.581 2222.75 126.257 Z" fill="#000000" fill-rule="evenodd" fill-opacity="1"></path></svg>